<?xml version="1.0" encoding="UTF-8"?>
<!DOCTYPE svg PUBLIC "-//W3C//DTD SVG 1.1//EN" "http://www.w3.org/Graphics/SVG/1.1/DTD/svg11.dtd">
<svg xmlns="http://www.w3.org/2000/svg" version="1.1" width="1024px" height="1024px" style="shape-rendering:geometricPrecision; text-rendering:geometricPrecision; image-rendering:optimizeQuality; fill-rule:evenodd; clip-rule:evenodd" xmlns:xlink="http://www.w3.org/1999/xlink">
<g><path style="opacity:1" fill="#0f0f0e" d="M -0.5,-0.5 C 340.833,-0.5 682.167,-0.5 1023.5,-0.5C 1023.5,340.833 1023.5,682.167 1023.5,1023.5C 682.167,1023.5 340.833,1023.5 -0.5,1023.5C -0.5,682.167 -0.5,340.833 -0.5,-0.5 Z"/></g>
<g><path style="opacity:1" fill="#f9f9f8" d="M 567.5,447.5 C 593.25,444.118 611.417,454.118 622,477.5C 622.494,479.134 622.66,480.801 622.5,482.5C 615.825,482.666 609.158,482.5 602.5,482C 596.181,468.174 585.514,462.84 570.5,466C 559.497,469.671 552.663,477.171 550,488.5C 547.273,502.41 548.94,515.743 555,528.5C 563.875,539.394 575.042,542.561 588.5,538C 597.606,533.723 602.606,526.556 603.5,516.5C 595.833,516.5 588.167,516.5 580.5,516.5C 580.5,511.167 580.5,505.833 580.5,500.5C 595.167,500.5 609.833,500.5 624.5,500.5C 627.099,521.583 620.099,538.416 603.5,551C 590.452,557.478 576.785,559.145 562.5,556C 546.263,550.763 535.763,539.93 531,523.5C 524.617,500.883 528.284,480.217 542,461.5C 549.337,454.584 557.837,449.918 567.5,447.5 Z"/></g>
<g><path style="opacity:1" fill="#fafafa" d="M 808.5,457.5 C 815.167,457.5 821.833,457.5 828.5,457.5C 828.5,463.833 828.5,470.167 828.5,476.5C 833.833,476.5 839.167,476.5 844.5,476.5C 844.5,481.833 844.5,487.167 844.5,492.5C 839.167,492.5 833.833,492.5 828.5,492.5C 828.049,507.572 828.549,522.572 830,537.5C 830.903,538.701 832.069,539.535 833.5,540C 837.537,540.607 841.537,540.44 845.5,539.5C 845.807,545.093 845.473,550.593 844.5,556C 834.386,558.797 824.719,557.797 815.5,553C 811.618,549.736 809.451,545.57 809,540.5C 808.5,524.837 808.333,509.17 808.5,493.5C 804.5,493.5 800.5,493.5 796.5,493.5C 796.5,487.833 796.5,482.167 796.5,476.5C 800.5,476.5 804.5,476.5 808.5,476.5C 808.5,470.167 808.5,463.833 808.5,457.5 Z"/></g>
<g><path style="opacity:1" fill="#0cacb3" d="M 500.5,446.5 C 512.792,445.454 517.292,450.788 514,462.5C 507.926,468.571 501.592,468.905 495,463.5C 491.526,455.843 493.36,450.176 500.5,446.5 Z"/></g>
<g><path style="opacity:1" fill="#0c6367" d="M 513.5,556.5 C 513.5,530.167 513.5,503.833 513.5,477.5C 507.5,477.5 501.5,477.5 495.5,477.5C 495.5,494.5 495.5,511.5 495.5,528.5C 494.503,511.341 494.17,494.008 494.5,476.5C 501.167,476.5 507.833,476.5 514.5,476.5C 514.831,503.339 514.498,530.005 513.5,556.5 Z"/></g>
<g><path style="opacity:1" fill="#f9f9f9" d="M 662.5,476.5 C 693.779,475.112 708.779,490.112 707.5,521.5C 689.5,521.5 671.5,521.5 653.5,521.5C 654.94,539.068 664.273,545.568 681.5,541C 684.311,539.356 686.644,537.19 688.5,534.5C 694.833,533.167 701.167,533.167 707.5,534.5C 703.192,547.642 694.192,555.142 680.5,557C 650.591,559.762 634.924,546.095 633.5,516C 634.345,496.033 644.012,482.866 662.5,476.5 Z"/></g>
<g><path style="opacity:1" fill="#fafafa" d="M 719.5,476.5 C 725.833,476.5 732.167,476.5 738.5,476.5C 738.335,479.85 738.502,483.183 739,486.5C 748.531,476.46 760.031,473.626 773.5,478C 782.472,482.321 787.638,489.488 789,499.5C 789.5,518.497 789.667,537.497 789.5,556.5C 782.833,556.5 776.167,556.5 769.5,556.5C 769.667,539.163 769.5,521.83 769,504.5C 766.851,497.025 761.851,493.359 754,493.5C 745.487,494.345 740.487,499.012 739,507.5C 738.5,523.83 738.333,540.163 738.5,556.5C 732.167,556.5 725.833,556.5 719.5,556.5C 719.5,529.833 719.5,503.167 719.5,476.5 Z"/></g>
<g><path style="opacity:1" fill="#f9f9f9" d="M 874.5,476.5 C 880.842,476.334 887.175,476.5 893.5,477C 906.994,478.662 914.661,486.162 916.5,499.5C 910.463,499.829 904.463,499.496 898.5,498.5C 895.811,492.901 891.311,490.235 885,490.5C 876.181,489.985 872.181,493.985 873,502.5C 874.214,504.049 875.714,505.215 877.5,506C 885.415,508.05 893.415,509.716 901.5,511C 915.371,515.568 920.871,525.068 918,539.5C 913.796,549.35 906.296,555.183 895.5,557C 883.904,558.876 872.904,557.209 862.5,552C 856.137,547.44 852.804,541.273 852.5,533.5C 858.537,533.171 864.537,533.504 870.5,534.5C 873.885,540.028 878.885,542.694 885.5,542.5C 888.592,542.493 891.592,541.993 894.5,541C 900.259,537.108 900.926,532.441 896.5,527C 888.908,525.012 881.241,523.346 873.5,522C 859.058,518.933 852.558,510.1 854,495.5C 857.205,485.164 864.038,478.83 874.5,476.5 Z"/></g>
<g><path style="opacity:1" fill="#09d2da" d="M 513.5,556.5 C 507.5,556.5 501.5,556.5 495.5,556.5C 495.5,547.167 495.5,537.833 495.5,528.5C 495.5,511.5 495.5,494.5 495.5,477.5C 501.5,477.5 507.5,477.5 513.5,477.5C 513.5,503.833 513.5,530.167 513.5,556.5 Z"/></g>
<g><path style="opacity:1" fill="#0aa4aa" d="M 496.5,478.5 C 501.833,478.5 507.167,478.5 512.5,478.5C 512.5,504.167 512.5,529.833 512.5,555.5C 507.167,555.5 501.833,555.5 496.5,555.5C 496.5,529.833 496.5,504.167 496.5,478.5 Z"/></g>
<g><path style="opacity:1" fill="#0e0e0e" d="M 666.5,491.5 C 679.494,490.148 687.16,495.815 689.5,508.5C 677.518,509.499 665.518,509.832 653.5,509.5C 654.049,500.637 658.382,494.637 666.5,491.5 Z"/></g>
<g><path style="opacity:1" fill="#0ba9af" d="M 420.5,447.5 C 428.833,447.5 437.167,447.5 445.5,447.5C 458.697,483.757 471.697,520.091 484.5,556.5C 477.137,556.831 469.803,556.497 462.5,555.5C 459.629,547.596 456.629,539.763 453.5,532C 439.837,531.5 426.171,531.333 412.5,531.5C 409.833,539.833 407.167,548.167 404.5,556.5C 396.804,556.831 389.138,556.497 381.5,555.5C 395.296,519.777 408.296,483.777 420.5,447.5 Z"/></g>
<g><path style="opacity:1" fill="#100f0f" d="M 448.5,512.5 C 438.5,513.833 428.5,513.833 418.5,512.5C 423.024,498.409 427.857,484.409 433,470.5C 438.459,484.375 443.625,498.375 448.5,512.5 Z"/></g>
<g><path style="opacity:1" fill="#0ba8ae" d="M 218.5,383.5 C 225.589,383.116 232.589,383.616 239.5,385C 265.999,400.415 292.332,416.082 318.5,432C 328.735,437.963 334.902,446.796 337,458.5C 337.667,490.833 337.667,523.167 337,555.5C 335.886,565.28 331.386,573.114 323.5,579C 298.57,593.603 273.903,608.603 249.5,624C 237.694,631.401 225.36,632.401 212.5,627C 187.499,611.164 162.166,595.831 136.5,581C 128.24,576.072 123.073,568.905 121,559.5C 120.333,524.167 120.333,488.833 121,453.5C 123.739,444.176 129.239,437.009 137.5,432C 164.563,415.807 191.563,399.641 218.5,383.5 Z"/></g>
<g><path style="opacity:1" fill="#0f0f0e" d="M 320.5,458.5 C 320.812,491.531 320.479,524.531 319.5,557.5C 317.074,561.762 313.74,565.262 309.5,568C 285.667,582.082 262,596.415 238.5,611C 230.932,615.962 223.599,615.628 216.5,610C 193.498,595.497 170.165,581.497 146.5,568C 143.333,566.167 140.833,563.667 139,560.5C 137.521,526.562 137.021,492.562 137.5,458.5C 138.55,452.788 141.55,448.455 146.5,445.5C 170.442,431.859 194.109,417.693 217.5,403C 225.294,398.392 232.96,398.725 240.5,404C 265.918,419.124 291.084,434.624 316,450.5C 317.795,453.099 319.295,455.766 320.5,458.5 Z"/></g>
<g><path style="opacity:1" fill="#0caab0" d="M 233.5,436.5 C 253.496,435.328 262.329,444.662 260,464.5C 254.484,475.017 245.65,480.017 233.5,479.5C 228.578,488.343 223.912,497.343 219.5,506.5C 231.169,510.376 243.002,513.709 255,516.5C 259.572,512.701 264.572,509.367 270,506.5C 285.61,504.046 294.777,510.546 297.5,526C 295.347,542.478 286.014,549.478 269.5,547C 261.225,543.725 256.225,537.725 254.5,529C 240.905,525.394 227.405,521.56 214,517.5C 210.032,524.603 206.199,531.77 202.5,539C 213.381,549.972 213.048,560.639 201.5,571C 188.46,576.767 178.96,573.267 173,560.5C 171.263,545.907 177.597,537.24 192,534.5C 195.245,527.676 198.745,521.009 202.5,514.5C 198.077,512.936 193.577,511.602 189,510.5C 185.366,512.396 181.533,513.896 177.5,515C 168.093,516.21 161.593,512.376 158,503.5C 155.79,492.418 159.956,484.918 170.5,481C 184.078,479.745 191.412,485.912 192.5,499.5C 197.53,500.674 202.53,502.008 207.5,503.5C 213.421,493.327 219.087,482.994 224.5,472.5C 214.113,457.205 217.113,445.205 233.5,436.5 Z"/></g>
<g><path style="opacity:1" fill="#0c6165" d="M 418.5,512.5 C 428.5,513.833 438.5,513.833 448.5,512.5C 449.043,512.56 449.376,512.893 449.5,513.5C 438.833,514.833 428.167,514.833 417.5,513.5C 417.624,512.893 417.957,512.56 418.5,512.5 Z"/></g>
<g><path style="opacity:1" fill="#08cdd3" d="M 146.5,445.5 C 141.55,448.455 138.55,452.788 137.5,458.5C 136.668,490.664 136.168,522.997 136,555.5C 135.333,522.833 135.333,490.167 136,457.5C 137.245,451.428 140.745,447.428 146.5,445.5 Z"/></g>
<g><path style="opacity:1" fill="#0ccdd5" d="M 320.5,458.5 C 321.664,490.997 321.831,523.664 321,556.5C 320.667,557.167 320.333,557.833 320,558.5C 319.601,558.272 319.435,557.938 319.5,557.5C 320.479,524.531 320.812,491.531 320.5,458.5 Z"/></g>
</svg>
